<mxfile host="app.diagrams.net" modified="2022-11-28T10:30:36.685Z" agent="5.0 (Windows NT 10.0; Win64; x64) AppleWebKit/537.36 (KHTML, like Gecko) Chrome/107.0.0.0 Safari/537.36" version="20.6.0" etag="uNxJ61VuCUYDGBpdDaxu" type="github">
  <diagram id="LkVj6LRaC0zDDB7-Qn7f" name="Page-1">
    <mxGraphModel dx="441" dy="326" grid="1" gridSize="10" guides="1" tooltips="1" connect="1" arrows="1" fold="1" page="1" pageScale="1" pageWidth="827" pageHeight="1169" math="0" shadow="0">
      <root>
        <mxCell id="0" />
        <mxCell id="1" parent="0" />
        <mxCell id="Tcq28HHXOJO1nB2SVdOK-4" style="edgeStyle=orthogonalEdgeStyle;rounded=0;orthogonalLoop=1;jettySize=auto;html=1;exitX=0.5;exitY=1;exitDx=0;exitDy=0;entryX=0.5;entryY=0;entryDx=0;entryDy=0;" edge="1" parent="1" source="Tcq28HHXOJO1nB2SVdOK-1" target="Tcq28HHXOJO1nB2SVdOK-3">
          <mxGeometry relative="1" as="geometry" />
        </mxCell>
        <mxCell id="Tcq28HHXOJO1nB2SVdOK-1" value="Start" style="ellipse;whiteSpace=wrap;html=1;" vertex="1" parent="1">
          <mxGeometry x="408" y="80" width="50" height="30" as="geometry" />
        </mxCell>
        <mxCell id="Tcq28HHXOJO1nB2SVdOK-6" value="" style="edgeStyle=orthogonalEdgeStyle;rounded=0;orthogonalLoop=1;jettySize=auto;html=1;" edge="1" parent="1" source="Tcq28HHXOJO1nB2SVdOK-3" target="Tcq28HHXOJO1nB2SVdOK-5">
          <mxGeometry relative="1" as="geometry" />
        </mxCell>
        <mxCell id="Tcq28HHXOJO1nB2SVdOK-3" value="Upload File" style="rounded=0;whiteSpace=wrap;html=1;" vertex="1" parent="1">
          <mxGeometry x="379" y="150" width="106" height="30" as="geometry" />
        </mxCell>
        <mxCell id="Tcq28HHXOJO1nB2SVdOK-8" value="" style="edgeStyle=orthogonalEdgeStyle;rounded=0;orthogonalLoop=1;jettySize=auto;html=1;" edge="1" parent="1" source="Tcq28HHXOJO1nB2SVdOK-5" target="Tcq28HHXOJO1nB2SVdOK-7">
          <mxGeometry relative="1" as="geometry" />
        </mxCell>
        <mxCell id="Tcq28HHXOJO1nB2SVdOK-10" value="" style="edgeStyle=orthogonalEdgeStyle;rounded=0;orthogonalLoop=1;jettySize=auto;html=1;" edge="1" parent="1" source="Tcq28HHXOJO1nB2SVdOK-5" target="Tcq28HHXOJO1nB2SVdOK-9">
          <mxGeometry relative="1" as="geometry" />
        </mxCell>
        <mxCell id="Tcq28HHXOJO1nB2SVdOK-5" value="if Upload File is ok" style="rhombus;whiteSpace=wrap;html=1;rounded=0;" vertex="1" parent="1">
          <mxGeometry x="372.63" y="230" width="119.75" height="90" as="geometry" />
        </mxCell>
        <mxCell id="Tcq28HHXOJO1nB2SVdOK-27" value="" style="edgeStyle=orthogonalEdgeStyle;rounded=0;orthogonalLoop=1;jettySize=auto;html=1;" edge="1" parent="1" source="Tcq28HHXOJO1nB2SVdOK-7" target="Tcq28HHXOJO1nB2SVdOK-26">
          <mxGeometry relative="1" as="geometry" />
        </mxCell>
        <mxCell id="Tcq28HHXOJO1nB2SVdOK-7" value="Error" style="whiteSpace=wrap;html=1;rounded=0;" vertex="1" parent="1">
          <mxGeometry x="260" y="257" width="53" height="37.5" as="geometry" />
        </mxCell>
        <mxCell id="Tcq28HHXOJO1nB2SVdOK-15" style="edgeStyle=orthogonalEdgeStyle;rounded=0;orthogonalLoop=1;jettySize=auto;html=1;" edge="1" parent="1" source="Tcq28HHXOJO1nB2SVdOK-9" target="Tcq28HHXOJO1nB2SVdOK-13">
          <mxGeometry relative="1" as="geometry" />
        </mxCell>
        <mxCell id="Tcq28HHXOJO1nB2SVdOK-9" value="Get Customer By CcmsCode" style="whiteSpace=wrap;html=1;rounded=0;" vertex="1" parent="1">
          <mxGeometry x="350.41999999999996" y="360" width="165.16" height="30" as="geometry" />
        </mxCell>
        <mxCell id="Tcq28HHXOJO1nB2SVdOK-17" value="" style="edgeStyle=orthogonalEdgeStyle;rounded=0;orthogonalLoop=1;jettySize=auto;html=1;" edge="1" parent="1" source="Tcq28HHXOJO1nB2SVdOK-13" target="Tcq28HHXOJO1nB2SVdOK-16">
          <mxGeometry relative="1" as="geometry" />
        </mxCell>
        <mxCell id="Tcq28HHXOJO1nB2SVdOK-50" value="" style="edgeStyle=orthogonalEdgeStyle;rounded=0;orthogonalLoop=1;jettySize=auto;html=1;" edge="1" parent="1" source="Tcq28HHXOJO1nB2SVdOK-13" target="Tcq28HHXOJO1nB2SVdOK-49">
          <mxGeometry relative="1" as="geometry" />
        </mxCell>
        <mxCell id="Tcq28HHXOJO1nB2SVdOK-13" value="Exist Customer?" style="rhombus;whiteSpace=wrap;html=1;rounded=0;" vertex="1" parent="1">
          <mxGeometry x="373.25" y="420" width="117.5" height="60" as="geometry" />
        </mxCell>
        <mxCell id="Tcq28HHXOJO1nB2SVdOK-31" style="edgeStyle=orthogonalEdgeStyle;rounded=0;orthogonalLoop=1;jettySize=auto;html=1;exitX=1;exitY=0.5;exitDx=0;exitDy=0;entryX=0;entryY=0.5;entryDx=0;entryDy=0;" edge="1" parent="1" source="Tcq28HHXOJO1nB2SVdOK-16" target="Tcq28HHXOJO1nB2SVdOK-28">
          <mxGeometry relative="1" as="geometry" />
        </mxCell>
        <mxCell id="Tcq28HHXOJO1nB2SVdOK-16" value="Error" style="whiteSpace=wrap;html=1;rounded=0;" vertex="1" parent="1">
          <mxGeometry x="530" y="435" width="87.5" height="30" as="geometry" />
        </mxCell>
        <mxCell id="Tcq28HHXOJO1nB2SVdOK-23" value="" style="edgeStyle=orthogonalEdgeStyle;rounded=0;orthogonalLoop=1;jettySize=auto;html=1;" edge="1" parent="1" source="Tcq28HHXOJO1nB2SVdOK-20" target="Tcq28HHXOJO1nB2SVdOK-22">
          <mxGeometry relative="1" as="geometry" />
        </mxCell>
        <mxCell id="Tcq28HHXOJO1nB2SVdOK-59" value="" style="edgeStyle=orthogonalEdgeStyle;rounded=0;orthogonalLoop=1;jettySize=auto;html=1;" edge="1" parent="1" source="Tcq28HHXOJO1nB2SVdOK-20">
          <mxGeometry relative="1" as="geometry">
            <mxPoint x="427.457142857143" y="725.0248984698487" as="targetPoint" />
          </mxGeometry>
        </mxCell>
        <mxCell id="Tcq28HHXOJO1nB2SVdOK-20" value="Inseted In Database" style="rhombus;whiteSpace=wrap;html=1;rounded=0;" vertex="1" parent="1">
          <mxGeometry x="349.84" y="622.5" width="155.16" height="75" as="geometry" />
        </mxCell>
        <mxCell id="Tcq28HHXOJO1nB2SVdOK-35" style="edgeStyle=orthogonalEdgeStyle;rounded=0;orthogonalLoop=1;jettySize=auto;html=1;entryX=1;entryY=0.5;entryDx=0;entryDy=0;" edge="1" parent="1" source="Tcq28HHXOJO1nB2SVdOK-22" target="Tcq28HHXOJO1nB2SVdOK-33">
          <mxGeometry relative="1" as="geometry" />
        </mxCell>
        <mxCell id="Tcq28HHXOJO1nB2SVdOK-22" value="Error Digital Signature" style="whiteSpace=wrap;html=1;rounded=0;" vertex="1" parent="1">
          <mxGeometry x="180" y="643.75" width="133" height="32.5" as="geometry" />
        </mxCell>
        <mxCell id="Tcq28HHXOJO1nB2SVdOK-26" value="End" style="ellipse;whiteSpace=wrap;html=1;rounded=0;" vertex="1" parent="1">
          <mxGeometry x="170" y="252.5" width="70" height="45" as="geometry" />
        </mxCell>
        <mxCell id="Tcq28HHXOJO1nB2SVdOK-28" value="End" style="ellipse;whiteSpace=wrap;html=1;rounded=0;" vertex="1" parent="1">
          <mxGeometry x="660" y="433.75" width="50" height="32.5" as="geometry" />
        </mxCell>
        <mxCell id="Tcq28HHXOJO1nB2SVdOK-33" value="End" style="ellipse;whiteSpace=wrap;html=1;rounded=0;" vertex="1" parent="1">
          <mxGeometry x="100" y="643.75" width="50" height="32.5" as="geometry" />
        </mxCell>
        <mxCell id="Tcq28HHXOJO1nB2SVdOK-39" value="" style="edgeStyle=orthogonalEdgeStyle;rounded=0;orthogonalLoop=1;jettySize=auto;html=1;" edge="1" parent="1" source="Tcq28HHXOJO1nB2SVdOK-36" target="Tcq28HHXOJO1nB2SVdOK-38">
          <mxGeometry relative="1" as="geometry" />
        </mxCell>
        <mxCell id="Tcq28HHXOJO1nB2SVdOK-36" value="Insert Documet" style="whiteSpace=wrap;html=1;rounded=0;" vertex="1" parent="1">
          <mxGeometry x="364.42" y="880" width="120" height="60" as="geometry" />
        </mxCell>
        <mxCell id="Tcq28HHXOJO1nB2SVdOK-43" style="edgeStyle=orthogonalEdgeStyle;rounded=0;orthogonalLoop=1;jettySize=auto;html=1;entryX=0.5;entryY=0;entryDx=0;entryDy=0;" edge="1" parent="1" source="Tcq28HHXOJO1nB2SVdOK-38" target="Tcq28HHXOJO1nB2SVdOK-42">
          <mxGeometry relative="1" as="geometry" />
        </mxCell>
        <mxCell id="Tcq28HHXOJO1nB2SVdOK-38" value="return SuccessResult(SigitalSignatureId)" style="whiteSpace=wrap;html=1;rounded=0;" vertex="1" parent="1">
          <mxGeometry x="307.42" y="990" width="240" height="70" as="geometry" />
        </mxCell>
        <mxCell id="Tcq28HHXOJO1nB2SVdOK-42" value="End" style="ellipse;whiteSpace=wrap;html=1;rounded=0;" vertex="1" parent="1">
          <mxGeometry x="392.42" y="1110" width="70" height="45" as="geometry" />
        </mxCell>
        <mxCell id="Tcq28HHXOJO1nB2SVdOK-45" value="no" style="text;html=1;strokeColor=none;fillColor=none;align=center;verticalAlign=middle;whiteSpace=wrap;rounded=0;" vertex="1" parent="1">
          <mxGeometry x="320" y="240" width="60" height="30" as="geometry" />
        </mxCell>
        <mxCell id="Tcq28HHXOJO1nB2SVdOK-46" value="ok" style="text;html=1;strokeColor=none;fillColor=none;align=center;verticalAlign=middle;whiteSpace=wrap;rounded=0;" vertex="1" parent="1">
          <mxGeometry x="358.75" y="320" width="60" height="30" as="geometry" />
        </mxCell>
        <mxCell id="Tcq28HHXOJO1nB2SVdOK-47" value="no" style="text;html=1;strokeColor=none;fillColor=none;align=center;verticalAlign=middle;whiteSpace=wrap;rounded=0;" vertex="1" parent="1">
          <mxGeometry x="480" y="440" width="60" height="30" as="geometry" />
        </mxCell>
        <mxCell id="Tcq28HHXOJO1nB2SVdOK-52" value="" style="edgeStyle=orthogonalEdgeStyle;rounded=0;orthogonalLoop=1;jettySize=auto;html=1;" edge="1" parent="1" source="Tcq28HHXOJO1nB2SVdOK-49" target="Tcq28HHXOJO1nB2SVdOK-51">
          <mxGeometry relative="1" as="geometry" />
        </mxCell>
        <mxCell id="Tcq28HHXOJO1nB2SVdOK-49" value="Create Signature File" style="whiteSpace=wrap;html=1;rounded=0;" vertex="1" parent="1">
          <mxGeometry x="372" y="520" width="120" height="30" as="geometry" />
        </mxCell>
        <mxCell id="Tcq28HHXOJO1nB2SVdOK-53" style="edgeStyle=orthogonalEdgeStyle;rounded=0;orthogonalLoop=1;jettySize=auto;html=1;exitX=0.5;exitY=1;exitDx=0;exitDy=0;entryX=0.5;entryY=0;entryDx=0;entryDy=0;" edge="1" parent="1" source="Tcq28HHXOJO1nB2SVdOK-51" target="Tcq28HHXOJO1nB2SVdOK-20">
          <mxGeometry relative="1" as="geometry" />
        </mxCell>
        <mxCell id="Tcq28HHXOJO1nB2SVdOK-51" value="Insert To Database" style="whiteSpace=wrap;html=1;rounded=0;" vertex="1" parent="1">
          <mxGeometry x="372" y="570" width="120" height="30" as="geometry" />
        </mxCell>
        <mxCell id="Tcq28HHXOJO1nB2SVdOK-54" value="ok" style="text;html=1;strokeColor=none;fillColor=none;align=center;verticalAlign=middle;whiteSpace=wrap;rounded=0;" vertex="1" parent="1">
          <mxGeometry x="370" y="480" width="60" height="30" as="geometry" />
        </mxCell>
        <mxCell id="Tcq28HHXOJO1nB2SVdOK-55" value="no" style="text;html=1;strokeColor=none;fillColor=none;align=center;verticalAlign=middle;whiteSpace=wrap;rounded=0;" vertex="1" parent="1">
          <mxGeometry x="307.42" y="625" width="60" height="30" as="geometry" />
        </mxCell>
        <mxCell id="Tcq28HHXOJO1nB2SVdOK-57" value="Yes" style="text;html=1;strokeColor=none;fillColor=none;align=center;verticalAlign=middle;whiteSpace=wrap;rounded=0;" vertex="1" parent="1">
          <mxGeometry x="364.42" y="697.5" width="60" height="30" as="geometry" />
        </mxCell>
      </root>
    </mxGraphModel>
  </diagram>
</mxfile>
